<svg width="480" height="480" xmlns="http://www.w3.org/2000/svg" xmlns:xlink="http://www.w3.org/1999/xlink" xml:space="preserve" overflow="hidden"><defs><clipPath id="clip0"><rect x="91" y="88" width="480" height="480"/></clipPath></defs><g clip-path="url(#clip0)" transform="translate(-91 -88)"><path d="M131 188 131 468 531 468 531 188 131 188ZM338 362.5C334 366.5 328 366.5 324 362.5L176 218 486.5 218 338 362.5ZM258.5 326.5 161 424.5 161 231 258.5 326.5ZM273 340.5 310.5 377C316.5 382.5 324 385.5 331.5 385.5 339 385.5 346.5 382.5 352.5 377L390 340.5 487 438 175.5 438 273 340.5ZM403.5 326.5 501 231.5 501 424 403.5 326.5Z"/></g></svg>